<svg xmlns="http://www.w3.org/2000/svg" version="1.1" xmlns:xlink="http://www.w3.org/1999/xlink" width="512" height="512" x="0" y="0" viewBox="0 0 496 496" style="enable-background:new 0 0 512 512" xml:space="preserve" class=""><g><path d="M496 456c0-22.055-17.945-40-40-40h-9.047l10.664-16-21.336-32H424v-2.543c0-22.89 6.207-46.48 19-72.129 4.559-9.168 6.047-19.473 4.273-29.777-3.28-19.07-18.16-34.535-37.015-38.488-3.418-.72-6.86-1.04-10.258-1.04V0H68.687L0 68.688V448h304.809a40.038 40.038 0 0 0-.809 8v8h16v32h160v-32h16zm-17.367-8H321.367c3.305-9.313 12.2-16 22.633-16h112c10.434 0 19.328 6.688 22.633 16zm-40.25-48-10.664 16H372.28l-10.664-16 10.664-16h55.438zm-6.88-133.734c1.185 6.925.208 13.824-2.831 19.925C414.77 314.105 408 340.031 408 365.457V368h-16v-7.754c0-23.629-6.809-48.246-20.207-73.168-2.48-4.59-3.793-9.812-3.793-15.078 0-9.68 4.313-18.734 11.832-24.848 7.625-6.199 17.29-8.48 27.152-6.425 12.297 2.578 22.375 13.082 24.52 25.539zM64 27.312V64H27.313zM16 432V80h64V16h304v210.762a47.721 47.721 0 0 0-14.258 7.972C358.472 243.894 352 257.488 352 272c0 7.902 1.969 15.742 5.695 22.664C369.84 317.223 376 339.297 376 360.246V368h-12.281l-21.336 32 10.664 16H344c-13.016 0-24.488 6.344-31.793 16zm448 48H336v-16h128zm0 0" fill="#ffffff" opacity="1" data-original="#000000" class=""></path><path d="M200 208c8.824 0 16 7.176 16 16h16c0-14.871-10.23-27.29-24-30.863V176h-16v17.137c-13.77 3.574-24 15.992-24 30.863 0 17.648 14.352 32 32 32 8.824 0 16 7.176 16 16s-7.176 16-16 16-16-7.176-16-16h-16c0 14.871 10.23 27.29 24 30.863V320h16v-17.137c13.77-3.574 24-15.992 24-30.863 0-17.648-14.352-32-32-32-8.824 0-16-7.176-16-16s7.176-16 16-16zm0 0" fill="#ffffff" opacity="1" data-original="#000000" class=""></path><path d="M104 195.71V352h16V184.71l80-55 88 60.497V352h16V201.207l19.473 13.387 9.054-13.188L200 110.29 67.473 201.406l9.054 13.188zM128 32h240v16H128zM96 32h16v16H96zM96 64h272v16H96zM32 368h296v16H32zM32 400h256v16H32zm0 0" fill="#ffffff" opacity="1" data-original="#000000" class=""></path></g></svg>