<svg xmlns="http://www.w3.org/2000/svg" version="1.1" xmlns:xlink="http://www.w3.org/1999/xlink" width="512" height="512" x="0" y="0" viewBox="0 0 60 60" style="enable-background:new 0 0 512 512" xml:space="preserve" class=""><g><path d="M59.648 45.829 58 43.393V32a3.974 3.974 0 0 0-1.382-3 4 4 0 1 0-5.236 0c-.068.06-.144.108-.209.173a3.951 3.951 0 0 0-1.136 2.453L48 28.617V17a3.974 3.974 0 0 0-1.382-3 4 4 0 1 0-5.236 0c-.068.06-.144.108-.209.173a3.958 3.958 0 0 0-1.155 2.648l-.63-.93A2.03 2.03 0 0 0 37.7 15H36v-3a6 6 0 0 0-3.107-5.253 4 4 0 1 0-5.786 0A6 6 0 0 0 24 12v3h-1.7a2.032 2.032 0 0 0-1.688.89l-.63.93a3.953 3.953 0 0 0-1.155-2.647c-.065-.065-.141-.113-.209-.173a4 4 0 1 0-5.236 0A3.974 3.974 0 0 0 12 17v11.617l-2.037 3.009a3.951 3.951 0 0 0-1.136-2.453c-.065-.065-.141-.113-.209-.173a4 4 0 1 0-5.236 0A3.974 3.974 0 0 0 2 32v11.394L.352 45.83a2.016 2.016 0 0 0-.342 1.079c0 .018-.01.033-.01.051V51a2 2 0 0 0 2 2h1v5a2 2 0 0 0 2 2h4a2 2 0 0 0 2-2v-5h10v4a3 3 0 0 0 3 3h12a3 3 0 0 0 3-3v-4h10v5a2 2 0 0 0 2 2h4a2 2 0 0 0 2-2v-5h1a2 2 0 0 0 2-2v-4.04c0-.018-.009-.033-.01-.051a2.019 2.019 0 0 0-.342-1.08ZM52 26a2 2 0 1 1 2 2 2 2 0 0 1-2-2Zm0 6a2 2 0 0 1 4 0v8.438l-4-5.911ZM42 11a2 2 0 1 1 2 2 2 2 0 0 1-2-2Zm0 6a2 2 0 0 1 4 0v8.661l-4-5.91ZM28 4a2 2 0 1 1 2 2 2 2 0 0 1-2-2Zm-2 8a4 4 0 0 1 8 0v3h-8Zm-3.7 5 15.431.011L57.97 47H39v-1a9.008 9.008 0 0 0-5.374-8.231 6 6 0 1 0-7.252 0A9.008 9.008 0 0 0 21 46v1l-18.992-.05ZM26 33a4 4 0 1 1 4 4 4 4 0 0 1-4-4ZM14 11a2 2 0 1 1 2 2 2 2 0 0 1-2-2Zm0 6a2 2 0 0 1 4 0v2.75l-4 5.911ZM4 26a2 2 0 1 1 2 2 2 2 0 0 1-2-2Zm0 6a2 2 0 0 1 4 0v2.528l-4 5.911Zm5 26H5v-5h4Zm1-7H2v-2h19v2Zm27 6a1 1 0 0 1-1 1h-1v-9a1 1 0 0 0-2 0v9h-6v-9a1 1 0 0 0-2 0v9h-1a1 1 0 0 1-1-1V46a7 7 0 0 1 14 0Zm18 1h-4v-5h4Zm1-7H39v-2h19v2Z" fill="#ffffff" opacity="1" data-original="#000000" class=""></path></g></svg>