<svg xmlns="http://www.w3.org/2000/svg" version="1.1" xmlns:xlink="http://www.w3.org/1999/xlink" width="512" height="512" x="0" y="0" viewBox="0 0 682.667 682.667" style="enable-background:new 0 0 512 512" xml:space="preserve" class=""><g><defs><clipPath id="a" clipPathUnits="userSpaceOnUse"><path d="M0 512h512V0H0Z" fill="#ffffff" opacity="1" data-original="#000000"></path></clipPath></defs><g clip-path="url(#a)" transform="matrix(1.33333 0 0 -1.33333 0 682.667)"><path d="m0 0-.322-126.548 67.356 48.782 66.113-48.782.322 128.179" style="stroke-width:20;stroke-linecap:round;stroke-linejoin:round;stroke-miterlimit:10;stroke-dasharray:none;stroke-opacity:1" transform="translate(189.426 136.548)" fill="none" stroke="#ffffff" stroke-width="20" stroke-linecap="round" stroke-linejoin="round" stroke-miterlimit="10" stroke-dasharray="none" stroke-opacity="" data-original="#000000" opacity="1" class=""></path><path d="M0 0c-48.812-18.063-83.698-65.083-83.698-120.097 0-70.579 57.421-128 128-128 70.579 0 128 57.421 128 128 0 55.016-34.888 102.036-83.704 120.099" style="stroke-width:20;stroke-linecap:round;stroke-linejoin:round;stroke-miterlimit:10;stroke-dasharray:none;stroke-opacity:1" transform="translate(211.698 427.34)" fill="none" stroke="#ffffff" stroke-width="20" stroke-linecap="round" stroke-linejoin="round" stroke-miterlimit="10" stroke-dasharray="none" stroke-opacity="" data-original="#000000" opacity="1" class=""></path><path d="m0 0 13.125 40.819c2.686 8.353 14.498 8.368 17.204.022L43.57 0h43.11c8.76 0 12.398-11.215 5.305-16.357L57.18-41.594l13.362-40.728c2.733-8.333-6.809-15.285-13.903-10.129L21.965-67.25l-34.796-25.353c-7.085-5.162-16.632 1.772-13.917 10.107l13.339 40.933-34.896 25.195C-55.415-11.234-51.784 0-43.014 0Z" style="stroke-width:20;stroke-linecap:round;stroke-linejoin:round;stroke-miterlimit:10;stroke-dasharray:none;stroke-opacity:1" transform="translate(234.167 335.886)" fill="none" stroke="#ffffff" stroke-width="20" stroke-linecap="round" stroke-linejoin="round" stroke-miterlimit="10" stroke-dasharray="none" stroke-opacity="" data-original="#000000" opacity="1" class=""></path><path d="m0 0 18.217 15.805c9.524 8.262 23.676 8.262 33.199 0L69.633 0a25.326 25.326 0 0 1 21.409-5.736l23.679 4.579c12.379 2.393 24.634-4.682 28.751-16.601l7.874-22.795a25.328 25.328 0 0 1 15.673-15.673l22.794-7.874c11.918-4.116 18.995-16.372 16.6-28.751l-4.578-23.678a25.328 25.328 0 0 1 5.736-21.409l15.805-18.217c8.263-9.524 8.263-23.675 0-33.199l-15.805-18.217a25.33 25.33 0 0 1-5.736-21.409l4.578-23.678c2.395-12.38-4.682-24.636-16.6-28.752l-22.794-7.874a25.33 25.33 0 0 1-15.673-15.672l-7.874-22.796c-4.117-11.918-16.372-18.994-28.751-16.6l-23.679 4.58a25.333 25.333 0 0 1-21.409-5.738l-18.217-15.804c-9.523-8.263-23.675-8.263-33.199 0L0-345.51a25.333 25.333 0 0 1-21.409 5.738l-23.678-4.58c-12.38-2.394-24.636 4.682-28.752 16.6l-7.874 22.796a25.332 25.332 0 0 1-15.672 15.672l-22.796 7.874c-11.918 4.116-18.994 16.372-16.6 28.752l4.579 23.678a25.333 25.333 0 0 1-5.736 21.409l-15.805 18.217c-8.263 9.524-8.263 23.675 0 33.199l15.805 18.217a25.331 25.331 0 0 1 5.736 21.409l-4.579 23.678c-2.394 12.379 4.682 24.635 16.6 28.751l22.796 7.874a25.332 25.332 0 0 1 15.672 15.673l7.874 22.795C-69.723-5.839-57.467 1.236-45.087-1.157l23.678-4.579A25.326 25.326 0 0 1 0 0Z" style="stroke-width:20;stroke-linecap:round;stroke-linejoin:round;stroke-miterlimit:10;stroke-dasharray:none;stroke-opacity:1" transform="translate(221.184 479.998)" fill="none" stroke="#ffffff" stroke-width="20" stroke-linecap="round" stroke-linejoin="round" stroke-miterlimit="10" stroke-dasharray="none" stroke-opacity="" data-original="#000000" opacity="1" class=""></path><path d="M0 0v0" style="stroke-width:20;stroke-linecap:round;stroke-linejoin:round;stroke-miterlimit:10;stroke-dasharray:none;stroke-opacity:1" transform="translate(256 435.243)" fill="none" stroke="#ffffff" stroke-width="20" stroke-linecap="round" stroke-linejoin="round" stroke-miterlimit="10" stroke-dasharray="none" stroke-opacity="" data-original="#000000" opacity="1" class=""></path></g></g></svg>