<svg xmlns="http://www.w3.org/2000/svg" version="1.1" xmlns:xlink="http://www.w3.org/1999/xlink" width="512" height="512" x="0" y="0" viewBox="0 0 64 64" style="enable-background:new 0 0 512 512" xml:space="preserve" class=""><g><g data-name="Artboard 02"><path d="M8.5 50a2.5 2.5 0 0 0 0 5H10v3a5.006 5.006 0 0 0 5 5h38a5.006 5.006 0 0 0 5-5V6a5.006 5.006 0 0 0-5-5H15a5.006 5.006 0 0 0-5 5v4H8.5a2.5 2.5 0 0 0 0 5H10v5H8.5a2.5 2.5 0 0 0 0 5H10v5H8.5a2.5 2.5 0 0 0 0 5H10v5H8.5a2.5 2.5 0 0 0 0 5H10v5ZM8 52.5a.5.5 0 0 1 .5-.5h5a.5.5 0 0 1 0 1h-5a.5.5 0 0 1-.5-.5ZM56 6v8.586L44.414 3H53a3 3 0 0 1 3 3ZM43 4.414 54.586 16H46a3 3 0 0 1-3-3ZM8 12.5a.5.5 0 0 1 .5-.5h5a.5.5 0 0 1 0 1h-5a.5.5 0 0 1-.5-.5Zm0 10a.5.5 0 0 1 .5-.5h5a.5.5 0 0 1 0 1h-5a.5.5 0 0 1-.5-.5Zm0 10a.5.5 0 0 1 .5-.5h5a.5.5 0 0 1 0 1h-5a.5.5 0 0 1-.5-.5Zm0 10a.5.5 0 0 1 .5-.5h5a.5.5 0 0 1 0 1h-5a.5.5 0 0 1-.5-.5Zm4 2.5h1.5a2.5 2.5 0 0 0 0-5H12v-5h1.5a2.5 2.5 0 0 0 0-5H12v-5h1.5a2.5 2.5 0 0 0 0-5H12v-5h1.5a2.5 2.5 0 0 0 0-5H12V6a3 3 0 0 1 3-3h26v10a5.006 5.006 0 0 0 5 5h10v40a3 3 0 0 1-3 3H15a3 3 0 0 1-3-3v-3h1.5a2.5 2.5 0 0 0 0-5H12Z" fill="#ffffff" opacity="1" data-original="#000000"></path><path d="M33 43a10.011 10.011 0 0 0 10-10 1 1 0 0 0-1-1h-8v-8a1 1 0 0 0-1-1 10 10 0 0 0 0 20Zm-1-17.938V33a1 1 0 0 0 1 1h7.938A8 8 0 1 1 32 25.062Z" fill="#ffffff" opacity="1" data-original="#000000"></path><path d="M36 31h9a1 1 0 0 0 1-1 10.011 10.011 0 0 0-10-10 1 1 0 0 0-1 1v9a1 1 0 0 0 1 1Zm1-8.938A8.019 8.019 0 0 1 43.938 29H37ZM31.82 50.346l4.412 5.294a1 1 0 0 0 1.475.067L46 47.414V50h2v-5h-.009A.973.973 0 0 0 47 44h-5v2h2.586l-7.519 7.519-4.3-5.159a1 1 0 0 0-1.341-.179l-10 7 1.146 1.638Z" fill="#ffffff" opacity="1" data-original="#000000"></path></g></g></svg>