<svg xmlns="http://www.w3.org/2000/svg" version="1.1" xmlns:xlink="http://www.w3.org/1999/xlink" width="512" height="512" x="0" y="0" viewBox="0 0 500 500" style="enable-background:new 0 0 512 512" xml:space="preserve" class=""><g><path fill-rule="evenodd" d="M130.625 263.849c-2.701-2.526-2.848-6.776-.305-9.477a6.7 6.7 0 0 1 9.477-.311l7.019 6.573 19.695-18.712a6.706 6.706 0 0 1 9.478.254 6.706 6.706 0 0 1-.243 9.478l-24.279 23.064c-2.569 2.449-6.619 2.455-9.212.034zm24.804-42.205c-19.735 0-35.797 16.05-35.797 35.791 0 19.735 16.061 35.785 35.797 35.785 19.735 0 35.791-16.05 35.791-35.785 0-19.741-16.056-35.791-35.791-35.791zm0 84.987c27.133 0 49.202-22.069 49.202-49.196 0-27.138-22.069-49.207-49.202-49.207s-49.207 22.069-49.207 49.207c0 27.127 22.074 49.196 49.207 49.196zm270.022 54.305-59.064 46.794c-13.236 10.478-22.894 16.615-38.3 24.307-26.381 13.162-50.394 21.606-69.434 24.414-21.255 3.137-46.788-1.147-71.474-5.278-10.71-1.797-20.814-3.487-30.444-4.566-13.857-1.56-26.539-2.724-39.408-3.634v-76.656c26.027-4.936 48.271-11.706 76.272-4.148a6.544 6.544 0 0 0 1.724.232h72.344c8.477 0 15.372 6.895 15.372 15.361 0 8.414-6.825 15.378-15.372 15.378h-72.344a6.705 6.705 0 1 0 0 13.411h72.344c9.687 0 18.514-4.821 23.804-12.642l7.454.706c11.702 0 17.42-4.411 25.573-9.093l87.208-50.349c6.957-4.018 15.875-1.628 19.888 5.329.073.124.153.243.226.367 4.509 6.746-.147 15.138-6.369 20.067zM103.91 452.879a5.029 5.029 0 0 1-5.024 5.03h-27.46a5.033 5.033 0 0 1-5.024-5.03v-93.351a5.031 5.031 0 0 1 5.024-5.024h27.46a5.027 5.027 0 0 1 5.024 5.024zm339.196-119.274c-7.765-13.219-24.81-17.734-38.102-10.054L317.79 373.9c-7.931 4.564-12.197 8.118-21.521 7.16 1.947-17.097-11.435-32.072-28.602-32.072h-71.474c-26.743-6.951-47.936-2.622-70.355 1.956-3.193.655-6.46 1.317-9.766 1.95-2.673-6.895-9.364-11.806-17.186-11.806h-27.46c-10.167 0-18.441 8.274-18.441 18.441v93.351c0 10.167 8.274 18.441 18.441 18.441h27.46c8.958 0 16.446-6.426 18.09-14.926 12.478.893 24.81 2.029 38.266 3.544 33.251 3.725 72.212 14.672 105.372 9.783 20.713-3.057 45.438-11.698 73.463-25.686 16.129-8.048 26.765-14.796 40.634-25.788l59.075-46.794c11.179-8.868 17.938-24.675 9.32-37.849zM155.429 193.302c-35.361 0-64.127 28.772-64.127 64.133 0 35.356 28.766 64.122 64.127 64.122 28.252 0 52.864-18.107 61.239-45.048a6.705 6.705 0 0 1 6.403-4.725h63.234c1.78 0 3.487.706 4.736 1.967l14.31 14.31h5.736l14.304-14.31a6.707 6.707 0 0 1 9.489 0l14.298 14.31h5.742l14.31-14.31a6.689 6.689 0 0 1 4.742-1.967h25.245l4.239-4.239-26.166-26.178H222.518a6.704 6.704 0 0 1-6.347-4.549c-8.839-26.025-33.242-43.516-60.742-43.516zm134.109 34.654H243.71v-47.308c0-3.9 4.51-7.189 9.839-7.189h26.155c5.329 0 9.833 3.289 9.833 7.189v47.308zm-117.234-69.151 90.599-84.75c1.984-1.854 5.465-1.854 7.449 0l90.599 84.75v69.151h-57.995v-47.308c0-11.354-10.438-20.6-23.25-20.6H253.55c-12.818 0-23.25 9.246-23.25 20.6v47.308h-3.131c-9.715-23.663-30.371-40.753-54.864-46.206v-22.945zm-24.019-8.228c3.578 3.334 9.613 3.334 13.191 0l92.266-86.315c7.104-6.646 18.667-6.646 25.765 0l92.272 86.315c3.577 3.334 9.613 3.334 13.19 0 3.31-3.099 3.321-8.007 0-11.116l-94.521-88.174c-13.263-12.364-34.689-12.351-47.908.011l-94.255 88.163c-3.317 3.11-3.313 8 0 11.116zm7.144 184.396c32.282 0 60.886-19.885 72.412-49.778h55.684l14.309 14.309a6.667 6.667 0 0 0 4.736 1.972h11.297c1.78 0 3.487-.707 4.736-1.972l11.529-11.523 11.529 11.523a6.692 6.692 0 0 0 4.747 1.972H357.7c1.78 0 3.481-.707 4.742-1.972l14.31-14.309h25.245a6.766 6.766 0 0 0 4.742-1.955l10.941-10.953a6.707 6.707 0 0 0 0-9.489l-32.869-32.886a6.772 6.772 0 0 0-4.753-1.955h-5.697v-61.838c13.542 2.313 26.505-7.326 26.505-21.103 0-5.832-2.396-11.286-6.742-15.355l-94.532-88.208c-18.266-17.067-47.975-17.011-66.218.057l-94.255 88.157c-8.989 8.411-8.988 22.296 0 30.704 5.375 5.024 12.812 6.929 19.774 5.748v13.857c-44.147-1.96-81.003 33.391-81.003 77.459.001 42.753 34.786 77.538 77.539 77.538z" clip-rule="evenodd" fill="#ffffff" opacity="1" data-original="#000000" class=""></path></g></svg>